<svg id="svg" version="1.1" xmlns="http://www.w3.org/2000/svg" xmlns:xlink="http://www.w3.org/1999/xlink" 
width="400" height="175.1135331516803" viewBox="0, 0, 400,175.1135331516803"><g 
id="svgg"><path id="path0" 
d="M226.083 0.817 
C 221.913 5.380,221.465 8.599,222.856 23.978 
C 223.643 32.677,223.736 34.961,223.443 38.268 
L 223.093 42.204 220.571 44.989 
C 216.522 49.461,215.869 49.962,212.716 51.008 
C 209.590 52.046,206.082 52.714,136.100 65.596 
C 119.887 68.580,118.828 68.823,114.120 70.649 
C 109.767 72.337,108.215 72.729,101.181 73.916 
C 95.117 74.939,91.286 75.835,85.305 77.628 
L 77.422 79.991 76.258 79.323 
C 75.576 78.932,73.329 76.278,70.829 72.910 
C 66.784 67.461,66.087 
66.733,57.375 58.845 
L 48.188 50.527 39.444 45.443 
C 34.232 42.413,26.076 38.139,19.255 34.862 
L 7.811 29.364 5.086 29.616 
C 1.105 29.983,0.000 30.962,0.000 34.122 
C 0.000 35.558,0.203 35.784,11.734 47.201 
L 23.467 58.819 25.267 62.920 
C 26.256 65.176,30.362 72.790,34.390 79.840 
C 40.098 89.831,41.767 93.042,41.953 94.398 
C 42.168 95.960,41.649 97.897,36.869 113.373 
L 31.546 130.609 30.999 136.776 
L 30.453 142.942 31.414 143.769 
C 34.539 146.458,42.210 142.770,49.837 134.913
C 53.470 131.171,64.580 112.878,68.824 103.650 
C 72.990 94.594,74.660 92.456,77.284 92.824 
C 78.038 92.929,86.340 93.675,95.731 94.481 
C 115.100 96.143,158.944 101.727,161.126 102.809 
C 162.498 103.490,180.224 107.539,181.832 107.539 
C 182.716 107.539,192.071 108.506,202.619 109.689
C 217.166 111.320,225.133 112.022,235.604 112.598 
C 243.197 113.016,250.064 113.443,250.863 113.548 
L 252.316 113.738 252.362 115.825 
C 252.417 118.282,253.751 121.727,256.797 127.282 
C 260.149 133.393,260.127 133.235,260.127 151.432 
L 260.127 167.185 261.427 170.150 
C 263.568 175.035,264.870 175.829,268.207 174.287 
C 274.276 171.483,280.983 162.286,285.187 151.002 
C 288.472 142.183,294.021 122.213,294.814 116.349 
C 295.160 113.799,294.242 113.996,308.992 113.303 
C 320.393 112.768,323.613 112.475,334.093 111.026 
L 346.115 109.363 353.423 106.613 
C 364.395 102.486,369.428 99.557,375.295 93.883 
L 379.837 89.491 389.186 84.320 
C 399.035 78.872,400.000 78.124,400.000 75.938
C 400.000 74.054,400.318 74.248,384.923 66.728 
L 371.117 59.984 343.267 54.171 L 315.417 48.359 301.669 47.228 
C 294.107 46.606,283.342 45.867,277.748 45.585 
L 267.575 45.073 265.829 43.154 
C 263.257 40.328,262.336 38.790,255.219 25.431 
L 248.736 13.261 244.350 8.783 
C 236.926 1.203,228.920 -2.288,226.083 0.817 M227.222 65.382 
C 227.836 65.575,228.747 65.814,229.246 65.913 
C 229.746 66.012,231.364 66.890,232.843 67.864 
C 235.415 69.560,235.602 69.623,237.202 69.340 
C 240.573 68.743,250.287 67.889,255.767 67.708 
C 262.047 67.500,262.569 67.420,262.015 66.753 
C 261.642 66.305,262.184 66.298,268.871 66.662 
C 269.784 66.711,270.897 66.948,271.343 67.187 
C 271.790 67.426,272.515 67.586,272.954 67.543 
C 273.392 67.500,274.211 67.653,274.774 67.883 
C 276.022 68.394,276.476 68.412,276.476 67.950 
C 276.476 67.757,277.068 67.949,277.791 68.375 
C 278.769 68.952,279.258 69.056,279.697 68.779 
C 280.133 68.504,280.395 68.553,280.698 68.969 
C 280.930 69.286,281.725 69.557,282.517 69.590 
C 283.291 69.623,284.409 69.846,285.003 70.087 
C 285.596 70.327,286.373 70.448,286.728 70.355 
C 287.084 70.262,287.473 70.345,287.592 70.539 
C 287.712 70.733,288.264 70.844,288.819 70.786 
C 289.374 70.728,290.092 70.900,290.416 71.169 
C 290.740 71.437,291.353 71.566,291.779 71.454 
C 292.205 71.343,292.927 71.496,293.382 71.795 
C 293.899 72.133,294.295 72.201,294.434 71.976 
C 294.572 71.752,295.072 71.848,295.746 72.229 
C 296.706 72.770,296.876 72.778,297.186 72.298 
C 297.379 71.998,297.539 71.931,297.542 72.149 
C 297.548 72.593,299.280 73.483,299.670 73.242 
C 300.535 72.707,304.580 74.470,305.901 75.957 
C 306.002 76.072,306.382 76.275,306.744 76.409 
C 310.314 77.728,291.676 83.807,276.476 86.280 
C 275.349 86.464,275.019 86.802,273.569 89.265 
C 271.915 92.077,265.884 98.819,265.023 98.819 
C 263.579 98.819,266.267 91.253,268.739 88.359 
C 270.879 85.854,271.182 85.941,262.150 86.465 
C 256.122 86.815,253.397 86.823,250.237 86.498 
C 247.984 86.267,244.587 85.947,242.688 85.788 
L 239.237 85.498 237.480 87.065 
C 231.093 92.762,229.490 92.937,217.075 89.295 
C 207.378 86.450,205.170 85.180,207.434 83.750 
C 209.472 82.464,209.019 82.099,206.090 82.664 
C 203.198 83.221,204.221 82.888,195.640 86.067 
C 188.233 88.811,180.403 91.190,178.778 91.190 
C 178.228 91.190,176.848 91.377,175.710 91.605 
C 173.030 92.143,172.909 91.941,174.514 89.610 
C 175.250 88.542,176.437 86.212,177.152 84.433 
C 177.866 82.654,178.681 80.941,178.962 80.625 
C 179.633 79.872,179.610 79.040,178.902 78.452 
C 178.587 78.191,178.010 77.395,177.619 76.682 
C 177.228 75.969,176.505 74.650,176.011 73.751 
C 175.518 72.852,174.515 71.585,173.782 70.936 
C 171.966 69.326,172.311 69.195,176.971 69.727 
C 180.997 70.187,182.991 70.647,196.004 74.125 
C 206.461 76.919,213.976 77.085,206.240 74.351 
C 204.751 73.825,210.676 70.248,219.534 66.325 
C 222.103 65.187,225.338 64.790,227.222 65.382 " 
stroke="none" fill="#72aaaa" fill-rule="evenodd"></path></g></svg>